<?xml version="1.0" encoding="utf-8"?>
<!-- Generator: Adobe Illustrator 25.4.1, SVG Export Plug-In . SVG Version: 6.00 Build 0)  -->
<svg version="1.1" id="Ebene_1" xmlns="http://www.w3.org/2000/svg" xmlns:xlink="http://www.w3.org/1999/xlink" x="0px" y="0px"
	 viewBox="0 0 1369.6 886.2" style="enable-background:new 0 0 1369.6 886.2;" xml:space="preserve">
<style type="text/css">
	.st0{fill:url(#SVGID_1_);}
	.st1{fill:#D00F1C;}
	.st2{fill:#FFFFFF;}
	.st3{fill:#9B0B20;}
	.st4{fill:#E3E3E3;}
</style>
<linearGradient id="SVGID_1_" gradientUnits="userSpaceOnUse" x1="1047.2278" y1="846.4917" x2="1047.2278" y2="653.1917" gradientTransform="matrix(1 0 0 1 0 -296.1102)">
	<stop  offset="0" style="stop-color:#9B0B20"/>
	<stop  offset="0.7586" style="stop-color:#D00F1C"/>
</linearGradient>
<polygon class="st0" points="1128.5,525.7 1156,457.5 1155.9,457.2 1156,457.1 1128.5,389 1062.5,357.1 980.7,357.1 938.5,357.1 
	980.7,357.1 962.1,357.1 963.7,418.3 980.7,418 1037.6,418.1 1064.6,430.9 1079.8,438.5 1087.8,457.6 1080.6,476.5 1037.8,496.4 
	1037.7,498.1 1079.1,550.4 1082,548.8 "/>
<polygon class="st1" points="1082,548.8 1037.8,496.4 1014.3,559.4 1019.9,566.1 1078.1,637.8 1157,637.8 "/>
<polygon class="st2" points="917,357.1 917,357.2 917,417.4 917,417.6 917,592.7 917,637.8 980.7,637.8 980.7,418 980.7,357.1 "/>
<polygon class="st1" points="481,313.6 544.6,251 544.6,193.9 481,250 "/>
<rect x="481" y="357.8" class="st1" width="63.6" height="280.6"/>
<polygon class="st3" points="266,401.5 202.4,457.6 282.4,638.4 370.1,638.4 334,532.6 315.7,514.7 "/>
<polygon class="st1" points="361.4,345.4 315.7,514.7 282.4,638.4 370.1,638.4 439.2,275.3 "/>
<path class="st4" d="M728.6,588.6L728.6,588.6L728.6,588.6z"/>
<polygon class="st3" points="660.6,537.7 660.8,357.8 597.2,357.8 597.2,536 605,563.2 675.4,581.2 669.5,568.6 "/>
<polygon class="st1" points="801.1,357.8 801.1,537.6 792.3,568.6 760.4,580.4 728.6,588.6 728.6,588.6 728.6,588.6 669.5,568.6 
	597.2,536 620.4,616.5 688.5,644 772.9,644 841.2,616.5 864.7,536.3 864.7,357.8 "/>
<rect x="917" y="357.6" class="st1" width="63.7" height="280.2"/>
</svg>
